<svg xmlns="http://www.w3.org/2000/svg" xmlns:xlink="http://www.w3.org/1999/xlink" xmlns:sketch="http://www.bohemiancoding.com/sketch/ns" viewBox="0 0 99 85" version="1.1" x="0px" y="0px"><title>Fill 1</title><desc>Created with Sketch.</desc><g stroke="none" stroke-width="1" fill="none" fill-rule="evenodd" sketch:type="MSPage"><g sketch:type="MSArtboardGroup" transform="translate(-1.000000, 0.000000)" fill="#000000"><g sketch:type="MSLayerGroup"><path d="M71.0586207,13.6758621 L98.7885057,13.6758621 C99.1183908,13.6758621 99.3873563,13.408046 99.3873563,13.0781609 C99.3873563,12.7471264 99.1183908,12.4793103 98.7885057,12.4793103 L71.6574713,12.4793103 L71.6574713,1.83793103 L98.4770115,1.83793103 C98.8068966,1.83793103 99.0747126,1.56896552 99.0747126,1.23908046 C99.0747126,0.909195402 98.8068966,0.640229885 98.4770115,0.640229885 L71.0586207,0.640229885 C70.7287356,0.640229885 70.4597701,0.909195402 70.4597701,1.23908046 L70.4597701,7.49655172 L48.3114943,7.49655172 C47.9804598,7.49655172 47.7126437,7.76436782 47.7126437,8.0954023 L47.7126437,19.0287356 C47.7045977,19.0287356 47.6977011,19.0241379 47.6885057,19.0241379 L28.0586207,19.0241379 C27.7287356,19.0241379 27.4597701,19.291954 27.4597701,19.6218391 L27.4597701,42.7011494 C27.4517241,42.7011494 27.4448276,42.6965517 27.4367816,42.6965517 L1.71149425,42.6965517 C1.3816092,42.6965517 1.11264368,42.9643678 1.11264368,43.2954023 C1.11264368,43.6252874 1.3816092,43.8931034 1.71149425,43.8931034 L27.4367816,43.8931034 C27.4448276,43.8931034 27.4517241,43.8896552 27.4597701,43.8885057 L27.4597701,65.137931 C27.4597701,65.4689655 27.7287356,65.7367816 28.0586207,65.7367816 L47.7126437,65.7367816 L47.7126437,77.2908046 C47.7126437,77.6206897 47.9804598,77.8885057 48.3114943,77.8885057 L70.4597701,77.8885057 L70.4597701,83.8310345 C70.4597701,84.162069 70.7287356,84.4298851 71.0586207,84.4298851 L98.7885057,84.4298851 C99.1183908,84.4298851 99.3873563,84.162069 99.3873563,83.8310345 C99.3873563,83.5011494 99.1183908,83.2333333 98.7885057,83.2333333 L71.6574713,83.2333333 L71.6574713,72.5908046 L98.4770115,72.5908046 C98.8068966,72.5908046 99.0747126,72.3229885 99.0747126,71.9931034 C99.0747126,71.662069 98.8068966,71.3942529 98.4770115,71.3942529 L71.0586207,71.3942529 C70.7287356,71.3942529 70.4597701,71.662069 70.4597701,71.9931034 L70.4597701,76.691954 L48.9103448,76.691954 L48.9103448,55.4528736 L70.4597701,55.4528736 L70.4597701,59.8402299 C70.4597701,60.1712644 70.7287356,60.4390805 71.0586207,60.4390805 L98.7885057,60.4390805 C99.1183908,60.4390805 99.3873563,60.1712644 99.3873563,59.8402299 C99.3873563,59.5103448 99.1183908,59.2425287 98.7885057,59.2425287 L71.6574713,59.2425287 L71.6574713,48.5988506 L98.4770115,48.5988506 C98.8068966,48.5988506 99.0747126,48.3310345 99.0747126,48 C99.0747126,47.6701149 98.8068966,47.4022989 98.4770115,47.4022989 L71.0586207,47.4022989 C70.7287356,47.4022989 70.4597701,47.6701149 70.4597701,48 L70.4597701,54.2563218 L48.3114943,54.2563218 C47.9804598,54.2563218 47.7126437,54.5241379 47.7126437,54.8551724 L47.7126437,64.5402299 L28.6574713,64.5402299 L28.6574713,20.2206897 L47.6885057,20.2206897 C47.6977011,20.2206897 47.7045977,20.216092 47.7126437,20.216092 L47.7126437,30.5264368 C47.7126437,30.8563218 47.9804598,31.1241379 48.3114943,31.1241379 L70.4597701,31.1241379 L70.4597701,37.0712644 C70.4597701,37.4022989 70.7287356,37.6701149 71.0586207,37.6701149 L98.7885057,37.6701149 C99.1183908,37.6701149 99.3873563,37.4022989 99.3873563,37.0712644 C99.3873563,36.7413793 99.1183908,36.4735632 98.7885057,36.4735632 L71.6574713,36.4735632 L71.6574713,25.8287356 L98.4770115,25.8287356 C98.8068966,25.8287356 99.0747126,25.5597701 99.0747126,25.2298851 C99.0747126,24.9 98.8068966,24.6310345 98.4770115,24.6310345 L71.0586207,24.6310345 C70.7287356,24.6310345 70.4597701,24.9 70.4597701,25.2298851 L70.4597701,29.9275862 L48.9103448,29.9275862 L48.9103448,8.69425287 L70.4597701,8.69425287 L70.4597701,13.0781609 C70.4597701,13.408046 70.7287356,13.6758621 71.0586207,13.6758621" sketch:type="MSShapeGroup"></path></g></g></g></svg>